<svg width="200" height="200" viewBox="0 0 200 200" fill="none" xmlns="http://www.w3.org/2000/svg">
<path d="M27.8288 141.668C24.2267 135.429 21.5231 128.918 19.6777 122.284C27.7817 118.149 33.331 109.723 33.331 100.002C33.331 90.2875 27.79 81.8667 19.6961 77.7284C23.4187 64.3043 30.4881 51.8023 40.5395 41.5834C48.1725 46.5347 58.2446 47.1278 66.6643 42.2667C75.0841 37.4055 79.6064 28.3863 79.135 19.3003C93.0108 15.705 107.372 15.8337 120.859 19.3218C120.396 28.4005 124.917 37.4093 133.331 42.2667C141.751 47.1277 151.822 46.5347 159.455 41.5839C164.277 46.4988 168.564 52.0959 172.167 58.3351C175.768 64.5742 178.472 71.0854 180.317 77.719C172.213 81.8539 166.664 90.28 166.664 100.002C166.664 109.717 172.205 118.137 180.299 122.275C176.577 135.699 169.507 148.201 159.456 158.42C151.822 153.469 141.751 152.876 133.331 157.737C124.911 162.597 120.389 171.618 120.86 180.703C106.985 184.298 92.6233 184.17 79.1361 180.682C79.5992 171.603 75.0774 162.594 66.6643 157.737C58.2448 152.876 48.1732 153.468 40.5403 158.419C35.7181 153.504 31.431 147.908 27.8288 141.668ZM74.9976 143.303C84.0925 148.554 90.6242 156.856 93.7525 166.383C97.905 166.778 102.085 166.783 106.238 166.396C109.365 156.864 115.898 148.557 124.997 143.303C134.097 138.049 144.558 136.546 154.377 138.603C156.788 135.2 158.873 131.577 160.607 127.783C153.922 120.311 149.997 110.503 149.997 100.002C149.997 89.5 153.922 79.6933 160.607 72.2208C159.74 70.3375 158.782 68.4852 157.732 66.6684C156.683 64.8516 155.558 63.0957 154.361 61.4035C144.547 63.4563 134.092 61.9512 124.997 56.7004C115.902 51.4496 109.372 43.1473 106.242 33.6213C102.091 33.2262 97.91 33.2205 93.7575 33.6077C90.63 43.1393 84.0966 51.447 74.9976 56.7004C65.8983 61.9539 55.4371 63.4578 45.619 61.4003C43.2071 64.8034 41.1219 68.4264 39.388 72.2198C46.0734 79.6926 49.9977 89.5 49.9977 100.002C49.9977 110.503 46.0736 120.31 39.388 127.783C40.2556 129.666 41.2136 131.518 42.2626 133.335C43.3116 135.152 44.4366 136.907 45.6343 138.6C55.4481 136.547 65.9031 138.052 74.9976 143.303ZM99.9975 125.002C86.1908 125.002 74.9976 113.809 74.9976 100.002C74.9976 86.195 86.1908 75.0018 99.9975 75.0018C113.805 75.0018 124.997 86.195 124.997 100.002C124.997 113.809 113.805 125.002 99.9975 125.002ZM99.9975 108.335C104.6 108.335 108.331 104.604 108.331 100.002C108.331 95.3992 104.6 91.6683 99.9975 91.6683C95.395 91.6683 91.6641 95.3992 91.6641 100.002C91.6641 104.604 95.395 108.335 99.9975 108.335Z" fill="currentColor"  stroke="currentColor"/>
<ellipse cx="99" cy="101.5" rx="15" ry="13.5" fill="black" fill="currentColor" stroke="currentColor" />
</svg>
