<svg width="15" height="14" viewBox="0 0 15 14" fill="none" xmlns="http://www.w3.org/2000/svg">
<rect x="10" y="0.75" width="3" height="1.5" rx="0.75" fill="white"/>
<path d="M1.5 3.5V3.5C1.5 2.03706 3.32187 1.5 4.78481 1.5H10.5H11.5M1.5 3.5C1.5 4.12463 1.5 7.22842 1.5 9.66983C1.5 10.8417 1.82813 12.5 3 12.5V12.5C3.3538 12.5 8.16687 12.5 11.3499 12.5C12.0692 12.5 12.7397 12.1405 13.1387 11.542V11.542C13.3743 11.1886 13.5 10.7733 13.5 10.3486V5.20711C13.5 4.75435 13.3201 4.32014 13 4V4C12.6799 3.67986 12.2456 3.5 11.7929 3.5H2.5H1.5Z" stroke="white" stroke-width="1.5"/>
<circle cx="10.75" cy="7.75" r="0.75" fill="white"/>
</svg>
