<svg width="156" height="39" viewBox="0 0 156 39" fill="none" xmlns="http://www.w3.org/2000/svg">
<g clip-path="url(#clip0_4701_293)">
<path fill-rule="evenodd" clip-rule="evenodd" d="M152.441 31.6431C150.46 31.6431 148.882 33.2951 148.882 35.2841V38.9251H152.441C154.422 38.9251 156 37.2741 156 35.2851C156 33.2951 154.386 31.6431 152.441 31.6431Z" fill="url(#paint0_linear_4701_293)"/>
<path fill-rule="evenodd" clip-rule="evenodd" d="M13.905 10.51C17.023 10.51 19.922 11.561 22.233 13.363V10.51H27.81V38.962H22.233V24.737C22.233 20.044 18.491 16.216 13.905 16.216C9.319 16.216 5.577 20.044 5.577 24.736C5.577 29.428 9.319 33.256 13.905 33.256H22.233C20.803 36.71 17.537 38.925 13.905 38.962C6.237 38.962 0 32.582 0 24.736C0 16.891 6.237 10.51 13.905 10.51Z" fill="url(#paint1_linear_4701_293)"/>
<path fill-rule="evenodd" clip-rule="evenodd" d="M52.465 0C50.484 0 48.906 1.652 48.906 3.641V7.282H52.465C54.446 7.282 56.024 5.63 56.024 3.641C56.024 1.651 54.41 0 52.465 0Z" fill="url(#paint2_linear_4701_293)"/>
<path fill-rule="evenodd" clip-rule="evenodd" d="M131.382 16.216C135.968 16.216 139.71 20.044 139.71 24.736C139.71 29.428 135.968 33.257 131.382 33.257C126.796 33.257 123.054 29.428 123.054 24.737C123.054 20.007 126.796 16.216 131.382 16.216ZM108.341 10.961V15.765C110.066 12.275 112.744 10.51 116.413 10.51V16.403H114.982C112.781 16.403 111.13 16.966 110.029 18.093C108.892 19.218 108.341 21.208 108.341 23.986V38.925H102.765V10.961H108.341ZM99.169 16.779H92.602V30.104C92.602 31.117 92.822 31.868 93.299 32.319C93.776 32.769 94.583 32.994 95.72 32.994H99.132V38.925H94.73C89.557 38.925 86.952 36.373 86.952 31.268V5.893L92.639 2.628V10.961H99.206V16.779H99.169ZM64.39 10.96V15.314C66.187 12.124 69.049 10.509 73.011 10.509C76.056 10.509 78.551 11.56 80.532 13.625C82.514 15.689 83.504 18.579 83.504 22.295V39H77.964V23.122C77.964 20.645 77.377 18.768 76.167 17.454C74.956 16.14 73.305 15.464 71.214 15.464C69.122 15.464 67.471 16.14 66.261 17.454C65.05 18.768 64.426 20.682 64.426 23.122V38.962H58.849V10.961H64.389L64.39 10.96ZM49.675 38.963V10.96H55.252V38.962L49.675 38.963ZM40.54 38.963V4.804L46.08 1.5V38.961H40.54V38.963ZM31.368 38.963V4.804L36.945 1.5V38.961H31.37L31.368 38.963ZM131.382 10.51C134.5 10.51 137.399 11.561 139.71 13.363V10.51H145.287V38.962H139.71V36.11C137.399 37.874 134.5 38.962 131.382 38.962C123.714 38.962 117.477 32.582 117.477 24.736C117.477 16.891 123.714 10.51 131.382 10.51Z" fill="white"/>
</g>
<defs>
<linearGradient id="paint0_linear_4701_293" x1="150.912" y1="37.5551" x2="155.1" y2="31.6391" gradientUnits="userSpaceOnUse">
<stop stop-color="#D23A86"/>
<stop offset="0.139" stop-color="#D64376"/>
<stop offset="0.516" stop-color="#E0584E"/>
<stop offset="0.816" stop-color="#E66536"/>
<stop offset="1" stop-color="#E86A2D"/>
</linearGradient>
<linearGradient id="paint1_linear_4701_293" x1="7.347" y1="36.083" x2="26.954" y2="15.886" gradientUnits="userSpaceOnUse">
<stop stop-color="#D23A86"/>
<stop offset="0.184" stop-color="#D43F7D"/>
<stop offset="0.484" stop-color="#DA4C65"/>
<stop offset="0.861" stop-color="#E4613D"/>
<stop offset="1" stop-color="#E86A2D"/>
</linearGradient>
<linearGradient id="paint2_linear_4701_293" x1="50.936" y1="5.896" x2="55.123" y2="-0.0200002" gradientUnits="userSpaceOnUse">
<stop stop-color="#D23A86"/>
<stop offset="0.139" stop-color="#D64376"/>
<stop offset="0.516" stop-color="#E0584E"/>
<stop offset="0.816" stop-color="#E66536"/>
<stop offset="1" stop-color="#E86A2D"/>
</linearGradient>
<clipPath id="clip0_4701_293">
<rect width="156" height="39" fill="white"/>
</clipPath>
</defs>
</svg>
